<svg width="100%" height="100%" viewBox="0 0 256 256" version="1.1" xmlns="http://www.w3.org/2000/svg" xmlns:xlink="http://www.w3.org/1999/xlink" xml:space="preserve" xmlns:serif="http://www.serif.com/" style="fill-rule:evenodd;clip-rule:evenodd;stroke-linejoin:round;stroke-miterlimit:2;">
    <g transform="matrix(2.11583,0,0,2.11583,0.704517,0.362838)">
        <path d="M101.19,18.41C102.31,11.94 103.94,7.87 105.76,7.86C109.14,7.87 111.89,21.98 111.89,39.4C111.89,56.82 109.14,70.94 105.76,70.94C104.37,70.94 103.09,68.54 102.06,64.52C100.43,79.23 97.05,89.34 93.13,89.34C90.1,89.34 87.38,83.27 85.55,73.69C84.3,91.91 81.17,104.83 77.5,104.83C75.2,104.83 73.1,99.71 71.55,91.37C69.68,108.58 65.37,120.65 60.33,120.65C55.29,120.65 50.97,108.59 49.11,91.37C47.57,99.71 45.47,104.83 43.16,104.83C39.49,104.83 36.36,91.9 35.11,73.69C33.28,83.27 30.57,89.34 27.53,89.34C23.62,89.34 20.23,79.23 18.6,64.52C17.58,68.55 16.29,70.94 14.9,70.94C11.51,70.94 8.77,56.82 8.77,39.4C8.77,21.98 11.51,7.86 14.9,7.86C16.72,7.86 18.34,11.94 19.47,18.41C21.28,7.25 24.21,0 27.53,0C31.47,0 34.88,10.26 36.5,25.15C38.08,14.31 40.48,7.4 43.16,7.4C46.92,7.4 50.12,20.99 51.31,39.95C53.54,30.23 56.77,24.13 60.34,24.13C63.91,24.13 67.14,30.23 69.36,39.95C70.55,20.99 73.74,7.4 77.51,7.4C80.19,7.4 82.58,14.31 84.17,25.15C85.78,10.26 89.2,0 93.13,0C96.44,0 99.38,7.26 101.19,18.41ZM0,36.3C0,28.51 1.56,22.2 3.48,22.2C5.4,22.2 6.96,28.51 6.96,36.3C6.96,44.09 5.4,50.4 3.48,50.4C1.56,50.4 0,44.08 0,36.3ZM113.7,36.3C113.7,28.51 115.26,22.2 117.18,22.2C119.1,22.2 120.66,28.51 120.66,36.3C120.66,44.09 119.1,50.4 117.18,50.4C115.26,50.4 113.7,44.08 113.7,36.3Z" style="fill:rgb(162,56,255);"/>
    </g>
</svg>
