<svg viewBox="0 0 1536 766" version="1.1" xmlns="http://www.w3.org/2000/svg" xmlns:xlink="http://www.w3.org/1999/xlink" xml:space="preserve" style="fill-rule:evenodd;clip-rule:evenodd;stroke-linejoin:round;stroke-miterlimit:2;">
    <g>
        <g transform="matrix(0.853097,0,0,0.3337,-288.372,-98.5336)">
            <path d="M338.03,295.276L338.03,1169.68L380.784,1169.68L380.784,951.079L466.293,951.079L466.293,732.478L423.538,732.478L423.538,841.779L380.784,841.779L380.784,295.276L338.03,295.276ZM509.047,513.877L509.047,623.178L551.801,623.178L551.801,513.877L509.047,513.877ZM466.293,623.178L466.293,732.478L509.047,732.478L509.047,623.178L466.293,623.178ZM466.293,951.079L466.293,1060.38L509.047,1060.38L509.047,951.079L466.293,951.079ZM509.047,1060.38L509.047,1169.68L551.801,1169.68L551.801,1060.38L509.047,1060.38Z" style="fill:white;"/>
            <path d="M637.31,513.877L637.31,1060.38L680.064,1060.38L680.064,513.877L637.31,513.877ZM680.064,1060.38L680.064,1169.68L765.573,1169.68L765.573,1060.38L680.064,1060.38ZM808.327,513.877L808.327,951.079L765.573,951.079L765.573,1060.38L808.327,1060.38L808.327,1169.68L851.082,1169.68L851.082,513.877L808.327,513.877Z" style="fill:white;"/>
            <path d="M1022.1,404.577L1022.1,1060.38L936.59,1060.38L936.59,1169.68L1150.36,1169.68L1150.36,1060.38L1064.85,1060.38L1064.85,295.276L936.59,295.276L936.59,404.577L1022.1,404.577Z" style="fill:white;"/>
            <path d="M1278.62,295.276L1278.62,513.877L1235.87,513.877L1235.87,623.178L1278.62,623.178L1278.62,1060.38L1321.38,1060.38L1321.38,623.178L1449.64,623.178L1449.64,513.877L1321.38,513.877L1321.38,295.276L1278.62,295.276ZM1321.38,1060.38L1321.38,1169.68L1406.89,1169.68L1406.89,1060.38L1321.38,1060.38ZM1406.89,951.079L1406.89,1060.38L1449.64,1060.38L1449.64,951.079L1406.89,951.079Z" style="fill:white;"/>
            <path d="M1535.15,513.877L1535.15,1060.38L1577.9,1060.38L1577.9,513.877L1535.15,513.877ZM1577.9,1060.38L1577.9,1169.68L1663.41,1169.68L1663.41,1060.38L1577.9,1060.38ZM1706.17,513.877L1706.17,951.079L1663.41,951.079L1663.41,1060.38L1706.17,1060.38L1706.17,1169.68L1748.92,1169.68L1748.92,513.877L1706.17,513.877Z" style="fill:white;"/>
            <path d="M1919.94,513.877L1834.43,513.877L1834.43,623.178L1877.18,623.178L1877.18,1060.38L1834.43,1060.38L1834.43,1169.68L2005.45,1169.68L2005.45,1060.38L1919.94,1060.38L1919.94,732.478L1962.69,732.478L1962.69,623.178L1919.94,623.178L1919.94,513.877ZM2048.2,513.877L1962.69,513.877L1962.69,623.178L2048.2,623.178L2048.2,513.877Z" style="fill:white;"/>
            <path d="M338.03,1497.58L338.03,2371.99L380.784,2371.99L380.784,2262.69L423.538,2262.69L423.538,2153.39L380.784,2153.39L380.784,1934.79L423.538,1934.79L423.538,1825.49L380.784,1825.49L380.784,1497.58L338.03,1497.58ZM423.538,2262.69L423.538,2371.99L509.047,2371.99L509.047,2262.69L423.538,2262.69ZM509.047,1825.49L509.047,2262.69L551.801,2262.69L551.801,1825.49L509.047,1825.49ZM423.538,1716.18L423.538,1825.49L509.047,1825.49L509.047,1716.18L423.538,1716.18Z" style="fill:white;"/>
            <path d="M637.31,1716.18L637.31,2044.09L680.064,2044.09L680.064,1716.18L637.31,1716.18ZM808.327,1716.18L808.327,2044.09L851.082,2044.09L851.082,1716.18L808.327,1716.18ZM722.819,2262.69L722.819,2481.29L765.573,2481.29L765.573,2262.69L722.819,2262.69ZM722.819,2481.29L637.31,2481.29L637.31,2590.59L722.819,2590.59L722.819,2481.29ZM765.573,2044.09L765.573,2262.69L808.327,2262.69L808.327,2044.09L765.573,2044.09ZM680.064,2044.09L680.064,2262.69L722.819,2262.69L722.819,2044.09L680.064,2044.09Z" style="fill:white;"/>
            <path d="M979.345,1497.58L979.345,1716.18L936.59,1716.18L936.59,1825.49L979.345,1825.49L979.345,2262.69L1022.1,2262.69L1022.1,1825.49L1150.36,1825.49L1150.36,1716.18L1022.1,1716.18L1022.1,1497.58L979.345,1497.58ZM1022.1,2262.69L1022.1,2371.99L1107.61,2371.99L1107.61,2262.69L1022.1,2262.69ZM1107.61,2153.39L1107.61,2262.69L1150.36,2262.69L1150.36,2153.39L1107.61,2153.39Z" style="fill:white;"/>
            <path d="M1278.62,1716.18L1278.62,1825.49L1406.89,1825.49L1406.89,1716.18L1278.62,1716.18ZM1235.87,1825.49L1235.87,2262.69L1278.62,2262.69L1278.62,2044.09L1449.64,2044.09L1449.64,1825.49L1406.89,1825.49L1406.89,1934.79L1278.62,1934.79L1278.62,1825.49L1235.87,1825.49ZM1278.62,2262.69L1278.62,2371.99L1406.89,2371.99L1406.89,2262.69L1278.62,2262.69ZM1406.89,2153.39L1406.89,2262.69L1449.64,2262.69L1449.64,2153.39L1406.89,2153.39Z" style="fill:white;"/>
            <path d="M1706.17,2262.69L1577.9,2262.69L1577.9,2371.99L1706.17,2371.99L1706.17,2262.69ZM1577.9,2262.69L1577.9,2153.39L1535.15,2153.39L1535.15,2262.69L1577.9,2262.69ZM1706.17,1716.18L1577.9,1716.18L1577.9,1825.49L1706.17,1825.49L1706.17,1716.18ZM1535.15,1825.49L1535.15,1934.79L1577.9,1934.79L1577.9,1825.49L1535.15,1825.49ZM1577.9,1934.79L1577.9,2044.09L1706.17,2044.09L1706.17,1934.79L1577.9,1934.79ZM1706.17,2044.09L1706.17,2262.69L1748.92,2262.69L1748.92,2044.09L1706.17,2044.09ZM1706.17,1825.49L1706.17,1934.79L1748.92,1934.79L1748.92,1825.49L1706.17,1825.49Z" style="fill:white;"/>
        </g>
        <g transform="matrix(2.67969,0,0,2.67969,-480.66,-2377.82)">
            <path d="M656.823,1106.35L656.823,1079L670.501,1079L670.501,1106.35L656.823,1106.35ZM670.501,1079L670.501,1065.32L697.858,1065.32L697.858,1079L670.501,1079ZM697.858,1079L711.537,1079L711.537,1092.67L697.858,1092.67L697.858,1079ZM711.537,1079L711.537,1065.32L738.893,1065.32L738.893,1079L711.537,1079ZM738.893,1079L752.572,1079L752.572,1106.35L738.893,1106.35L738.893,1079ZM738.893,1106.35L738.893,1120.03L725.215,1120.03L725.215,1106.35L738.893,1106.35ZM725.215,1120.03L725.215,1133.71L711.537,1133.71L711.537,1120.03L725.215,1120.03ZM711.537,1133.71L711.537,1147.39L697.858,1147.39L697.858,1133.71L711.537,1133.71ZM697.858,1133.71L684.18,1133.71L684.18,1120.03L697.858,1120.03L697.858,1133.71ZM684.18,1120.03L670.501,1120.03L670.501,1106.35L684.18,1106.35L684.18,1120.03Z" style="fill:rgb(242,13,94);"/>
        </g>
    </g>
</svg>
