<?xml version="1.0" encoding="UTF-8" standalone="no"?>
<!DOCTYPE svg PUBLIC "-//W3C//DTD SVG 1.1//EN" "http://www.w3.org/Graphics/SVG/1.1/DTD/svg11.dtd">
<svg width="100%" height="100%" viewBox="0 0 256 256" version="1.1" xmlns="http://www.w3.org/2000/svg" xmlns:xlink="http://www.w3.org/1999/xlink" xml:space="preserve" xmlns:serif="http://www.serif.com/" style="fill-rule:evenodd;clip-rule:evenodd;stroke-linejoin:round;stroke-miterlimit:2;">
    <g transform="matrix(1.54327,0,0,16.976,-89.068,-1413.22)">
        <path d="M103.213,84.254L92.154,84.254L92.154,83.248L103.213,83.248L103.213,84.254ZM103.213,95.312L103.213,96.318L92.154,96.318L92.154,95.312L103.213,95.312ZM114.272,94.307L114.272,95.312L103.213,95.312L103.213,94.307L114.272,94.307ZM180.624,95.312L191.683,95.312L191.683,96.318L180.624,96.318L180.624,95.312ZM169.566,94.307L180.624,94.307L180.624,95.312L169.566,95.312L169.566,94.307ZM180.624,84.254L180.624,83.248L191.683,83.248L191.683,84.254L180.624,84.254ZM169.566,85.259L169.566,84.254L180.624,84.254L180.624,85.259L169.566,85.259ZM114.272,85.259L169.566,85.259L169.566,86.264L180.624,86.264L180.624,87.27L158.507,87.27L158.507,88.275L147.448,88.275L147.448,90.286L169.566,90.286L169.566,89.28L180.624,89.28L180.624,87.27L191.683,87.27L191.683,90.286L180.624,90.286L180.624,91.291L169.566,91.291L169.566,92.296L158.507,92.296L158.507,93.302L169.566,93.302L169.566,94.307L158.507,94.307L158.507,97.323L169.566,97.323L169.566,98.328L147.448,98.328L147.448,96.318L136.389,96.318L136.389,98.328L114.272,98.328L114.272,97.323L125.331,97.323L125.331,94.307L114.272,94.307L114.272,93.302L125.331,93.302L125.331,92.296L114.272,92.296L114.272,91.291L103.213,91.291L103.213,90.286L92.154,90.286L92.154,87.27L103.213,87.27L103.213,89.28L114.272,89.28L114.272,90.286L136.389,90.286L136.389,88.275L125.331,88.275L125.331,87.27L103.213,87.27L103.213,86.264L114.272,86.264L114.272,85.259ZM103.213,84.254L114.272,84.254L114.272,85.259L103.213,85.259L103.213,84.254Z"/>
    </g>
</svg>
